<?xml version="1.0" standalone="no"?>
<!DOCTYPE svg PUBLIC "-//W3C//DTD SVG 20010904//EN"
 "http://www.w3.org/TR/2001/REC-SVG-20010904/DTD/svg10.dtd">
<svg version="1.0" xmlns="http://www.w3.org/2000/svg"
 width="590.000000pt" height="590.000000pt" viewBox="0 0 590.000000 590.000000"
 preserveAspectRatio="xMidYMid meet">
<metadata>
Created by potrace 1.14, written by Peter Selinger 2001-2017
</metadata>
<g transform="translate(0.000000,590.000000) scale(0.100000,-0.100000)"
fill="#000000" stroke="none">
<path d="M2918 5130 c-113 -24 -198 -52 -332 -111 l-109 -48 62 55 c65 59 103
114 78 114 -69 0 -712 -431 -826 -554 -14 -14 -28 -26 -33 -26 -4 0 -35 21
-68 47 -53 41 -68 47 -119 51 -98 7 -146 -33 -259 -216 -60 -95 -82 -122 -145
-172 -144 -113 -389 -292 -482 -352 -84 -53 -95 -64 -101 -95 -22 -117 51
-541 117 -678 56 -117 296 -414 490 -605 117 -116 130 -132 172 -221 39 -81
52 -99 81 -113 31 -15 39 -15 70 -2 48 20 117 86 188 180 34 45 64 81 68 81 4
0 25 -23 47 -50 47 -60 154 -164 236 -230 l57 -46 0 -107 c0 -90 3 -114 21
-147 41 -75 3 -195 -110 -354 l-70 -98 -62 31 c-124 61 -270 41 -494 -68 -126
-62 -180 -109 -218 -189 -55 -118 -97 -309 -97 -448 l0 -79 -540 0 -540 0 0
-85 0 -85 560 0 560 0 41 -45 c84 -91 235 -175 361 -201 201 -41 259 -48 313
-37 79 17 159 59 223 117 31 28 70 58 86 66 16 8 43 34 60 58 l30 42 865 0
866 -1 35 -55 c47 -74 119 -149 153 -158 15 -3 51 -24 80 -46 83 -64 146 -84
257 -84 85 0 108 4 218 41 67 23 152 58 188 78 70 39 177 133 215 190 l24 35
383 0 382 0 0 85 0 85 -365 0 -364 0 -5 33 c-3 17 -10 66 -16 107 -21 142
-112 366 -179 443 -50 56 -201 120 -360 152 -86 18 -213 23 -252 12 -24 -8
-28 -3 -71 70 -26 43 -72 107 -105 143 -157 176 -151 159 -140 420 l9 214 79
84 c81 85 172 200 224 282 16 25 30 47 32 49 1 2 22 -12 45 -31 55 -45 81 -58
111 -58 37 0 73 50 99 133 20 67 28 79 123 177 154 160 322 386 396 533 34 67
54 185 64 377 6 114 -5 292 -21 334 -3 9 -62 55 -131 102 -145 100 -315 226
-465 346 -90 71 -119 102 -188 199 -96 134 -131 173 -185 204 -56 32 -99 38
-142 20 -38 -16 -146 -101 -200 -157 l-33 -34 -105 52 c-170 84 -421 142 -631
146 l-89 1 95 7 c52 4 158 9 235 10 l140 2 -70 33 c-38 19 -97 41 -130 50 -83
21 -275 19 -387 -5z m202 -190 c99 -13 189 -50 239 -101 88 -88 84 -178 -24
-479 -63 -174 -59 -347 10 -512 15 -35 32 -85 39 -111 l12 -48 0 88 c1 108 26
180 86 248 71 80 152 103 250 69 199 -67 275 -404 133 -590 l-26 -34 38 0 c47
0 114 20 181 54 l52 26 0 -32 c0 -18 -7 -109 -14 -202 -13 -153 -13 -174 2
-210 25 -64 91 -170 159 -256 l62 -78 -33 -55 c-110 -182 -305 -397 -524 -579
-106 -88 -162 -139 -162 -150 0 -14 36 -9 81 11 46 21 194 116 243 158 16 13
31 22 33 19 2 -2 1 -69 -2 -148 l-7 -143 -51 -48 c-90 -86 -317 -183 -511
-218 -60 -11 -66 -11 -119 16 -50 24 -66 27 -130 23 -61 -3 -82 -8 -117 -32
l-43 -28 -91 11 c-262 33 -499 125 -613 236 -71 69 -92 119 -77 183 l9 40 94
-55 c204 -118 458 -199 438 -139 -2 6 -70 46 -152 89 -178 93 -263 145 -381
234 -125 93 -222 182 -290 264 -92 110 -91 108 -65 169 12 28 22 68 22 88 1
33 -46 274 -85 442 -8 36 -13 66 -12 67 1 1 22 -8 47 -20 83 -41 215 -35 332
15 l47 21 -58 52 c-101 92 -148 210 -139 352 8 142 76 241 189 279 58 19 110
14 169 -17 83 -42 159 -151 175 -250 l7 -43 15 39 c8 22 16 83 19 136 5 82 2
107 -16 165 -27 82 -70 163 -143 265 -207 290 -227 403 -97 544 24 26 64 57
89 70 81 41 244 89 370 108 54 9 260 6 340 -3z m-1235 -480 c4 -6 10 -8 14 -6
10 6 35 -38 30 -53 -2 -5 -19 8 -37 29 -18 22 -29 40 -23 40 5 0 13 -5 16 -10z
m2209 -128 c-6 -8 -45 20 -55 41 -10 18 -7 17 23 -8 19 -17 34 -31 32 -33z
m-2217 -297 c0 -8 -4 -12 -9 -9 -5 3 -6 10 -3 15 9 13 12 11 12 -6z m2253 -8
c0 -2 -17 -19 -37 -38 l-37 -34 30 37 c25 31 44 46 44 35z m-2199 -54 c13 -16
12 -17 -3 -4 -17 13 -22 21 -14 21 2 0 10 -8 17 -17z m2039 -2220 c0 -5 42
-56 93 -115 50 -59 114 -144 141 -188 l49 -81 -24 -17 c-50 -35 -99 -85 -132
-135 -60 -92 -147 -338 -162 -460 l-7 -55 -202 -6 c-110 -3 -473 -8 -806 -11
l-605 -6 -1 83 c-2 106 -32 199 -122 377 -43 87 -84 154 -116 188 l-48 53 42
63 c24 34 62 90 85 123 24 34 51 86 60 115 23 70 27 73 56 50 111 -87 386
-186 577 -207 34 -3 62 -7 62 -8 0 -1 -10 -22 -22 -47 -20 -38 -23 -60 -23
-154 0 -100 3 -115 28 -167 77 -157 236 -222 375 -152 157 78 227 318 141 487
-11 21 -18 41 -15 45 3 3 54 17 113 32 143 36 259 83 363 147 86 53 100 59
100 46z m-759 -184 c203 -61 221 -404 26 -498 -154 -74 -317 68 -305 264 7
107 58 188 142 226 48 22 83 24 137 8z m-1394 -174 c81 -31 162 -84 198 -131
42 -55 141 -253 175 -349 37 -106 48 -196 30 -251 -16 -50 -96 -180 -115 -188
-25 -9 -38 2 -100 90 -86 122 -92 130 -101 121 -18 -18 43 -200 84 -249 l26
-31 -34 -29 c-84 -69 -165 -88 -280 -64 -89 19 -90 20 -166 174 -30 62 -59
110 -65 107 -15 -10 -10 -86 10 -158 l20 -68 -22 7 c-72 22 -195 103 -254 167
-35 38 -42 54 -49 103 -17 138 23 381 85 518 21 47 41 73 71 95 92 66 314 155
402 160 10 1 48 -10 85 -24z m2817 -75 c151 -39 233 -77 274 -126 64 -77 151
-323 168 -471 12 -112 1 -145 -73 -224 -61 -64 -198 -167 -209 -157 -2 3 1 39
8 81 11 75 4 139 -16 138 -5 0 -24 -43 -42 -96 -54 -157 -68 -176 -144 -202
-91 -31 -176 -30 -245 2 -75 36 -82 47 -56 88 25 41 51 146 51 210 0 47 -12
62 -24 30 -17 -45 -121 -215 -134 -221 -22 -8 -113 93 -147 163 -26 53 -28 61
-22 153 7 110 30 197 95 362 41 102 52 122 106 175 34 33 88 75 121 92 78 42
136 43 289 3z"/>
<path d="M3542 3909 c-18 -12 -45 -42 -60 -68 -25 -42 -27 -55 -27 -146 0 -89
3 -107 29 -162 38 -83 102 -143 152 -143 70 0 143 64 172 149 16 46 14 187 -2
233 -8 21 -21 50 -31 65 l-18 26 -14 -26 c-48 -93 -164 -41 -154 71 2 27 -5
27 -47 1z m224 -373 c-23 -59 -76 -106 -121 -106 -38 0 -80 31 -108 79 l-18
31 37 -25 c67 -46 162 -25 202 45 24 41 28 28 8 -24z"/>
<path d="M2320 3740 c10 -35 -3 -92 -26 -111 -28 -23 -84 -16 -110 14 l-23 27
-11 -36 c-18 -55 -8 -189 19 -249 40 -90 123 -155 197 -155 109 0 183 216 130
378 -28 82 -111 162 -170 162 -11 0 -13 -6 -6 -30z m-50 -395 c16 -8 50 -15
76 -15 42 0 51 4 87 42 33 34 38 37 32 17 -27 -90 -64 -125 -121 -116 -48 8
-78 29 -114 79 -34 46 -41 75 -9 34 11 -14 34 -33 49 -41z"/>
<path d="M3020 3384 c-120 -21 -150 -28 -186 -44 -44 -19 -84 -56 -84 -77 0
-41 132 -136 222 -159 91 -24 183 20 268 127 76 97 41 144 -115 153 -44 2 -91
3 -105 0z"/>
<path d="M3576 3302 c-4 -10 11 -58 34 -111 22 -50 40 -103 40 -116 0 -34 -95
-103 -247 -179 -66 -33 -88 -33 -209 4 -54 16 -109 30 -120 30 -12 0 -73 -29
-135 -65 -126 -72 -113 -71 -262 -34 -94 24 -176 55 -199 76 -22 20 -23 63 -4
163 10 49 11 80 5 92 -5 10 -12 18 -14 18 -8 0 -180 -102 -212 -127 -18 -13
-33 -28 -33 -34 0 -17 64 -9 125 16 33 14 61 25 61 25 1 0 -2 -21 -7 -46 -11
-57 -2 -123 20 -148 20 -23 93 -60 151 -77 25 -7 51 -17 57 -22 18 -13 106
-171 134 -237 12 -30 35 -69 51 -86 l30 -32 -21 -96 c-36 -166 -27 -221 52
-300 86 -85 217 -132 327 -116 214 31 345 207 327 440 -8 95 -28 162 -68 225
-30 48 -31 52 -20 95 7 25 33 87 57 137 43 87 49 95 116 139 112 75 124 113
78 237 l-18 48 36 -8 c59 -13 145 -10 149 5 5 14 -40 35 -147 67 -125 37 -128
37 -134 17z m-286 -687 c14 -15 30 -23 39 -20 9 3 12 3 8 -1 -4 -4 -2 -13 4
-21 8 -8 8 -13 1 -13 -6 0 -12 3 -14 8 -1 4 -20 22 -41 40 -21 17 -34 32 -29
32 5 0 19 -11 32 -25z m-452 -110 c-3 -3 -9 2 -12 12 -6 14 -5 15 5 6 7 -7 10
-15 7 -18z m545 -406 c-8 -8 -13 -7 -18 2 -5 8 -4 10 3 5 7 -4 12 -2 12 5 0 7
3 9 7 6 4 -4 2 -12 -4 -18z"/>
</g>
</svg>
